o Cylinder
v 0.187535 0.050250 -1.315300
v 0.050250 0.187535 -1.315300
v -0.050250 0.187535 -1.315300
v -0.137285 0.137285 -1.315300
v 0.187535 0.050250 -2.008959
v 0.187535 -0.050250 -2.008959
v 0.137285 0.137285 -2.008959
v 0.050250 0.187535 -2.008959
v -0.050250 0.187535 -2.008959
v -0.137285 0.137285 -2.008959
v -0.187535 0.050250 -2.008959
v -0.187535 -0.050250 -2.008959
v -0.137285 -0.137285 -2.008959
v -0.050250 -0.187535 -2.008959
v 0.050250 -0.187535 -2.008959
v 0.137285 -0.137285 -2.008959
v 0.383709 0.037953 -1.466944
v 0.383709 -0.037953 -1.466944
v -0.037953 0.383709 -1.466944
v 0.037953 0.383709 -1.466944
v -0.383709 -0.037953 -1.466944
v -0.383709 0.037953 -1.466944
v 0.037953 -0.383709 -1.466944
v -0.037953 -0.383709 -1.466944
v 0.383709 0.037953 -1.990853
v 0.383709 -0.037953 -1.990853
v -0.037953 0.383709 -1.990853
v 0.037953 0.383709 -1.990853
v -0.383710 -0.037953 -1.990853
v -0.383710 0.037953 -1.990853
v 0.037953 -0.383709 -1.990853
v -0.037953 -0.383709 -1.990853
v 0.389028 -0.104240 1.000000
v 0.389028 -0.104240 -1.000000
v 0.389028 0.104240 1.000000
v 0.389028 0.104240 -1.000000
v 0.284788 0.284789 1.000000
v 0.284789 0.284788 -1.000000
v 0.104240 0.389028 1.000000
v 0.104240 0.389028 -1.000000
v -0.104240 0.389028 1.000000
v -0.104240 0.389028 -1.000000
v -0.284789 0.284789 1.000000
v -0.284788 0.284789 -1.000000
v -0.389028 0.104240 1.000000
v -0.389028 0.104240 -1.000000
v -0.389028 -0.104240 1.000000
v -0.389028 -0.104240 -1.000000
v -0.284789 -0.284788 1.000000
v -0.284789 -0.284788 -1.000000
v -0.104240 -0.389028 1.000000
v -0.104240 -0.389028 -1.000000
v 0.104240 -0.389028 1.000000
v 0.104240 -0.389028 -1.000000
v 0.284788 -0.284789 1.000000
v 0.284788 -0.284789 -1.000000
v 0.272320 -0.072968 1.389061
v 0.272320 0.072968 1.389061
v 0.199352 0.199352 1.389061
v 0.072968 0.272320 1.389061
v -0.072968 0.272320 1.389061
v -0.199352 0.199352 1.389061
v -0.272320 0.072968 1.389061
v -0.272320 -0.072968 1.389061
v -0.199352 -0.199352 1.389061
v -0.072968 -0.272320 1.389061
v 0.072968 -0.272320 1.389061
v 0.199352 -0.199352 1.389061
v -0.000000 0.000000 1.543314
v 0.187535 -0.050250 -1.315300
v 0.137285 0.137285 -1.315300
v -0.187535 0.050250 -1.315300
v -0.187535 -0.050250 -1.315300
v -0.137285 -0.137285 -1.315300
v -0.050250 -0.187535 -1.315300
v 0.050250 -0.187535 -1.315300
v 0.137285 -0.137285 -1.315300
v -0.050250 0.187535 -1.315300
v -0.050250 0.187535 -1.315300
v -0.050250 0.187535 -1.315300
v 0.050250 0.187535 -1.315300
v 0.050250 0.187535 -1.315300
v 0.050250 0.187535 -1.315300
v -0.137285 0.137285 -1.315300
v 0.137285 0.137285 -2.008959
v 0.187535 0.050250 -2.008959
v 0.187535 0.050250 -2.008959
v 0.050250 0.187535 -2.008959
v 0.050250 0.187535 -2.008959
v -0.137285 0.137285 -2.008959
v -0.050250 0.187535 -2.008959
v -0.050250 0.187535 -2.008959
v -0.187535 0.050250 -2.008959
v -0.187535 0.050250 -2.008959
v -0.137285 -0.137285 -2.008959
v -0.187535 -0.050250 -2.008959
v -0.187535 -0.050250 -2.008959
v -0.050250 -0.187535 -2.008959
v -0.050250 -0.187535 -2.008959
v 0.137285 -0.137285 -2.008959
v 0.050250 -0.187535 -2.008959
v 0.050250 -0.187535 -2.008959
v 0.187535 -0.050250 -2.008959
v 0.187535 -0.050250 -2.008959
v 0.187535 0.050250 -1.315300
v 0.187535 0.050250 -1.315300
v 0.187535 0.050250 -1.315300
v 0.383709 0.037953 -1.466944
v 0.383709 0.037953 -1.466944
v 0.383709 -0.037953 -1.466944
v 0.383709 -0.037953 -1.466944
v -0.037953 0.383709 -1.466944
v -0.037953 0.383709 -1.466944
v 0.037953 0.383709 -1.466944
v 0.037953 0.383709 -1.466944
v -0.383709 -0.037953 -1.466944
v -0.383709 -0.037953 -1.466944
v -0.383709 0.037953 -1.466944
v -0.383709 0.037953 -1.466944
v 0.037953 -0.383709 -1.466944
v 0.037953 -0.383709 -1.466944
v -0.037953 -0.383709 -1.466944
v -0.037953 -0.383709 -1.466944
v 0.383709 0.037953 -1.990853
v 0.383709 0.037953 -1.990853
v 0.383709 -0.037953 -1.990853
v 0.383709 -0.037953 -1.990853
v -0.037953 0.383709 -1.990853
v -0.037953 0.383709 -1.990853
v 0.037953 0.383709 -1.990853
v 0.037953 0.383709 -1.990853
v -0.383710 -0.037953 -1.990853
v -0.383710 -0.037953 -1.990853
v -0.383710 0.037953 -1.990853
v -0.383710 0.037953 -1.990853
v 0.037953 -0.383709 -1.990853
v 0.037953 -0.383709 -1.990853
v -0.037953 -0.383709 -1.990853
v -0.037953 -0.383709 -1.990853
v 0.389028 -0.104240 1.000000
v 0.389028 0.104240 1.000000
v 0.389028 0.104240 -1.000000
v 0.389028 -0.104240 -1.000000
v 0.284788 0.284789 1.000000
v 0.284789 0.284788 -1.000000
v 0.104240 0.389028 1.000000
v 0.104240 0.389028 -1.000000
v -0.104240 0.389028 1.000000
v -0.104240 0.389028 -1.000000
v -0.284789 0.284789 1.000000
v -0.284788 0.284789 -1.000000
v -0.389028 0.104240 1.000000
v -0.389028 0.104240 -1.000000
v -0.389028 -0.104240 1.000000
v -0.389028 -0.104240 -1.000000
v -0.284789 -0.284788 1.000000
v -0.284789 -0.284788 -1.000000
v -0.104240 -0.389028 1.000000
v -0.104240 -0.389028 -1.000000
v 0.104240 -0.389028 1.000000
v 0.104240 -0.389028 -1.000000
v 0.284788 -0.284789 1.000000
v 0.284788 -0.284789 -1.000000
v 0.272320 -0.072968 1.389061
v 0.272320 0.072968 1.389061
v 0.199352 0.199352 1.389061
v 0.072968 0.272320 1.389061
v -0.072968 0.272320 1.389061
v -0.199352 0.199352 1.389061
v -0.272320 0.072968 1.389061
v -0.272320 -0.072968 1.389061
v -0.199352 -0.199352 1.389061
v -0.072968 -0.272320 1.389061
v 0.072968 -0.272320 1.389061
v 0.199352 -0.199352 1.389061
v -0.187535 -0.050250 -1.315300
v -0.187535 -0.050250 -1.315300
v -0.187535 -0.050250 -1.315300
v -0.187535 0.050250 -1.315300
v -0.187535 0.050250 -1.315300
v -0.187535 0.050250 -1.315300
v -0.137285 -0.137285 -1.315300
v -0.050250 -0.187535 -1.315300
v -0.050250 -0.187535 -1.315300
v -0.050250 -0.187535 -1.315300
v 0.050250 -0.187535 -1.315300
v 0.050250 -0.187535 -1.315300
v 0.050250 -0.187535 -1.315300
v 0.137285 -0.137285 -1.315300
v 0.187535 -0.050250 -1.315300
v 0.187535 -0.050250 -1.315300
v 0.187535 -0.050250 -1.315300
v 0.137285 0.137285 -1.315300
vt 0.3519 0.7520
vt 0.2928 0.9152
vt 0.2928 0.7575
vt 0.8833 0.9510
vt 0.8833 0.8566
vt 0.9378 0.9510
vt 0.7554 0.9608
vt 0.7856 0.7520
vt 0.7856 0.9608
vt 0.0645 0.9898
vt 0.0910 0.9152
vt 0.0947 0.9898
vt 0.5537 0.9608
vt 0.5839 0.7520
vt 0.5839 0.9608
vt 0.3519 0.9608
vt 0.3822 0.7520
vt 0.3822 0.9608
vt 0.8159 0.7520
vt 0.8159 0.9608
vt 0.1502 0.9608
vt 0.1805 0.7520
vt 0.1805 0.9608
vt 0.6142 0.7520
vt 0.6142 0.9608
vt 0.4125 0.7520
vt 0.4125 0.9608
vt 0.2107 0.7520
vt 0.2107 0.9608
vt 0.2107 0.7520
vt 0.2699 0.9152
vt 0.2107 0.9608
vt 0.4679 0.9898
vt 0.4945 0.9152
vt 0.4982 0.9898
vt 0.2699 0.9152
vt 0.2928 0.7575
vt 0.2928 0.9152
vt 0.0682 0.9152
vt 0.0910 0.7575
vt 0.0910 0.9152
vt 0.6962 0.9152
vt 0.6734 0.7575
vt 0.6962 0.7575
vt 0.4716 0.9152
vt 0.4945 0.7575
vt 0.4945 0.9152
vt 0.8634 0.8766
vt 0.8418 0.8200
vt 0.7554 0.7520
vt 0.6962 0.9152
vt 0.6962 0.7575
vt 0.6142 0.7520
vt 0.6734 0.9152
vt 0.6142 0.9608
vt 0.6999 0.9898
vt 0.6734 0.9152
vt 0.6962 0.9152
vt 0.9578 0.9311
vt 0.9794 0.9877
vt 0.4125 0.7520
vt 0.4716 0.9152
vt 0.4125 0.9608
vt 0.0090 0.7520
vt 0.0682 0.9152
vt 0.0090 0.9608
vt 0.2662 0.9898
vt 0.2928 0.9152
vt 0.2965 0.9898
vt 0.8634 0.9311
vt 0.8418 0.9877
vt 0.8267 0.9726
vt 0.1502 0.7520
vt 0.0910 0.9152
vt 0.0910 0.7575
vt 0.9578 0.8766
vt 0.9794 0.8200
vt 0.9944 0.8350
vt 0.5537 0.7520
vt 0.4945 0.9152
vt 0.4945 0.7575
vt 0.8852 0.1220
vt 0.1921 0.1798
vt 0.1921 0.1220
vt 0.8852 0.2375
vt 0.1921 0.2375
vt 0.1921 0.2953
vt 0.8852 0.2953
vt 0.1921 0.3531
vt 0.8852 0.3531
vt 0.1921 0.4108
vt 0.8852 0.4686
vt 0.1921 0.4686
vt 0.1921 0.5264
vt 0.8852 0.5264
vt 0.1921 0.5841
vt 0.8852 0.6419
vt 0.1921 0.6419
vt 0.1921 0.6996
vt 0.8852 0.3531
vt 0.9945 0.4108
vt 0.8852 0.4108
vt 0.1921 0.0065
vt 0.8852 0.0643
vt 0.1921 0.0643
vt 0.1921 0.5841
vt 0.0572 0.5264
vt 0.1921 0.5264
vt 0.0572 0.2953
vt 0.0572 0.3531
vt 0.0038 0.3540
vt 0.0572 0.4686
vt 0.1921 0.4686
vt 0.0572 0.4108
vt 0.1921 0.4108
vt 0.0572 0.3531
vt 0.1921 0.3531
vt 0.0572 0.2953
vt 0.1921 0.2953
vt 0.1921 0.1220
vt 0.0572 0.0643
vt 0.1921 0.0643
vt 0.1921 0.1798
vt 0.0572 0.1220
vt 0.1921 0.2375
vt 0.0572 0.2375
vt 0.0572 0.0065
vt 0.1921 0.0065
vt 0.0572 0.1798
vt 0.1921 0.6996
vt 0.0572 0.6419
vt 0.1921 0.6419
vt 0.0572 0.5841
vt 0.0572 0.0065
vt 0.0572 0.0643
vt 0.0572 0.1220
vt 0.0572 0.1798
vt 0.0572 0.5264
vt 0.0572 0.5841
vt 0.0572 0.4108
vt 0.0572 0.2375
vt 0.0572 0.6419
vt 0.0572 0.4686
vt 0.0572 0.6996
vt 0.9945 0.2953
vt 0.9945 0.3531
vt 0.8852 0.0643
vt 0.9945 0.1220
vt 0.8852 0.1220
vt 0.8852 0.1798
vt 0.9945 0.1798
vt 0.8852 0.2375
vt 0.8852 0.2953
vt 0.9945 0.0065
vt 0.9945 0.0643
vt 0.9945 0.2375
vt 0.8852 0.6419
vt 0.9945 0.6996
vt 0.8852 0.6996
vt 0.8852 0.5841
vt 0.9945 0.6419
vt 0.8852 0.5264
vt 0.9945 0.5841
vt 0.8852 0.4686
vt 0.9945 0.5264
vt 0.9945 0.4686
vt 0.3519 0.9608
vt 0.9651 0.9038
vt 0.9106 0.9583
vt 0.8561 0.9038
vt 0.9106 0.8493
vt 0.9378 0.8566
vt 0.7554 0.7520
vt 0.0682 0.9152
vt 0.5537 0.7520
vt 0.3519 0.7520
vt 0.1502 0.7520
vt 0.2699 0.7575
vt 0.4716 0.9152
vt 0.2699 0.7575
vt 0.0682 0.7575
vt 0.6734 0.9152
vt 0.4716 0.7575
vt 0.8267 0.8350
vt 0.7554 0.9608
vt 0.6734 0.7575
vt 0.6697 0.9898
vt 0.9944 0.9726
vt 0.4716 0.7575
vt 0.0682 0.7575
vt 0.2699 0.9152
vt 0.1502 0.9608
vt 0.5537 0.9608
vt 0.8852 0.1798
vt 0.8852 0.4108
vt 0.8852 0.5841
vt 0.8852 0.6996
vt 0.8852 0.0065
vt 0.0572 0.6996
vt 0.8852 0.0065
vn -0.9980 0.0625 0.0000
vn 0.0000 -0.0336 -0.9994
vn -0.0336 0.0000 -0.9994
vn 0.0336 0.0000 -0.9994
vn 0.5000 -0.8660 0.0000
vn 0.7071 -0.7071 0.0000
vn 0.6116 0.0000 0.7912
vn -0.8660 -0.5000 0.0000
vn -0.7071 -0.7071 0.0000
vn -0.5000 0.8660 0.0000
vn -0.7071 0.7071 0.0000
vn 0.8660 -0.5000 0.0000
vn 0.8660 0.5000 0.0000
vn 0.7071 0.7071 0.0000
vn -0.5000 -0.8660 0.0000
vn -0.8660 0.5000 0.0000
vn 0.5000 0.8660 0.0000
vn 0.9980 0.0625 0.0000
vn -0.6116 0.0000 0.7912
vn 0.0000 1.0000 0.0000
vn 1.0000 0.0000 0.0000
vn 0.0000 -1.0000 0.0000
vn -1.0000 0.0000 0.0000
vn -0.0919 0.0000 -0.9958
vn 0.9980 -0.0625 0.0000
vn -0.9980 -0.0625 0.0000
vn 0.0000 -0.6116 0.7912
vn 0.0919 0.0000 -0.9958
vn -0.0625 0.9980 0.0000
vn 0.0625 -0.9980 0.0000
vn 0.0000 0.6116 0.7912
vn 0.0000 -0.0919 -0.9958
vn 0.0625 0.9980 0.0000
vn 0.0000 0.0336 -0.9994
vn 0.0000 0.0919 -0.9958
vn -0.0625 -0.9980 0.0000
vn 0.9659 -0.2588 0.0000
vn 0.9659 0.2588 0.0000
vn 0.2588 0.9659 0.0000
vn -0.2588 0.9659 0.0000
vn -0.9659 0.2588 0.0000
vn -0.9659 -0.2588 0.0000
vn -0.2588 -0.9659 0.0000
vn 0.2588 -0.9659 0.0000
vn -0.2158 0.8056 -0.5517
vn -0.5897 0.5897 -0.5517
vn -0.6753 -0.6753 0.2966
vn -0.9225 -0.2472 0.2966
vn 0.1242 0.4636 0.8773
vn -0.1242 0.4636 0.8773
vn 0.0000 0.0000 1.0000
vn -0.9225 0.2472 0.2966
vn -0.6753 0.6753 0.2966
vn -0.2472 0.9225 0.2966
vn 0.2472 0.9225 0.2966
vn 0.9225 -0.2472 0.2966
vn 0.6753 -0.6753 0.2966
vn 0.9225 0.2472 0.2966
vn 0.6753 0.6753 0.2966
vn 0.2472 -0.9225 0.2966
vn -0.2472 -0.9225 0.2966
vn 0.1242 -0.4636 0.8773
vn 0.3394 -0.3394 0.8773
vn 0.4636 -0.1242 0.8773
vn 0.4636 0.1242 0.8773
vn -0.4636 -0.1242 0.8773
vn -0.3394 -0.3394 0.8773
vn -0.3394 0.3394 0.8773
vn 0.3394 0.3394 0.8773
vn -0.1242 -0.4636 0.8773
vn -0.4636 0.1242 0.8773
vn 0.2158 0.8056 -0.5517
vn 0.5897 -0.5897 -0.5517
vn 0.8056 -0.2158 -0.5517
vn 0.8056 0.2158 -0.5517
vn 0.5897 0.5897 -0.5517
vn 0.2158 -0.8056 -0.5517
vn -0.2158 -0.8056 -0.5517
vn -0.5897 -0.5897 -0.5517
vn -0.8056 -0.2158 -0.5517
vn -0.8056 0.2158 -0.5517
vn 0.0000 0.0000 -1.0000
f 92/1/1 113/2/1 129/3/1
f 101/4/2 93/5/3 103/6/4
f 187/7/5 16/8/6 189/9/6
f 192/10/7 108/11/7 106/12/7
f 177/13/8 13/14/9 182/15/9
f 79/16/10 10/17/11 84/18/11
f 189/9/6 104/19/12 190/20/12
f 105/21/13 7/22/14 71/23/14
f 182/15/9 14/24/15 183/25/15
f 84/18/11 94/26/16 181/27/16
f 71/23/14 89/28/17 82/29/17
f 8/30/18 115/31/18 83/32/18
f 179/33/19 116/34/19 176/35/19
f 114/36/20 128/37/20 112/38/20
f 111/39/21 124/40/21 109/41/21
f 120/42/22 138/43/22 136/44/22
f 119/45/23 132/46/23 117/47/23
f 96/48/3 135/49/24 93/5/3
f 102/50/25 121/51/25 137/52/25
f 99/53/26 123/54/26 75/55/26
f 186/56/27 24/57/27 23/58/27
f 86/59/4 127/60/28 103/6/4
f 11/61/29 22/62/29 72/63/29
f 6/64/30 18/65/30 70/66/30
f 81/67/31 19/68/31 78/69/31
f 98/70/2 31/71/32 32/72/32
f 5/73/33 17/74/33 25/75/33
f 88/76/34 27/77/35 28/78/35
f 12/79/36 21/80/36 29/81/36
f 143/82/37 141/83/38 140/84/37
f 141/83/38 145/85/14 144/86/14
f 145/85/14 146/87/39 144/86/14
f 147/88/39 148/89/40 146/87/39
f 149/90/40 150/91/11 148/89/40
f 150/91/11 153/92/41 152/93/41
f 153/92/41 154/94/42 152/93/41
f 155/95/42 156/96/9 154/94/42
f 156/96/9 159/97/43 158/98/43
f 159/97/43 160/99/44 158/98/43
f 42/100/45 4/101/46 44/102/46
f 160/103/44 163/104/6 162/105/6
f 163/104/6 140/84/37 162/105/6
f 49/106/47 171/107/48 47/108/48
f 60/109/49 168/110/50 69/111/51
f 47/108/48 170/112/52 45/113/52
f 45/113/52 169/114/53 43/115/53
f 43/115/53 61/116/54 41/117/54
f 41/117/54 167/118/55 39/119/55
f 33/120/56 175/121/57 55/122/57
f 35/123/58 164/124/56 33/120/56
f 37/125/59 167/118/55 166/126/59
f 55/122/57 174/127/60 53/128/60
f 37/125/59 165/129/58 35/123/58
f 53/130/60 173/131/61 51/132/61
f 51/132/61 172/133/47 49/106/47
f 67/134/62 68/135/63 69/111/51
f 57/136/64 58/137/65 69/111/51
f 64/138/66 65/139/67 69/111/51
f 168/110/50 62/140/68 69/111/51
f 68/135/63 57/136/64 69/111/51
f 58/137/65 59/141/69 69/111/51
f 65/139/67 66/142/70 69/111/51
f 62/140/68 63/143/71 69/111/51
f 59/141/69 60/109/49 69/111/51
f 66/142/70 67/144/62 69/111/51
f 63/143/71 64/138/66 69/111/51
f 42/100/45 2/145/72 3/146/45
f 56/147/73 191/148/74 34/149/74
f 36/150/75 191/148/74 107/151/75
f 38/152/76 2/145/72 40/153/72
f 56/147/73 188/154/77 77/155/73
f 38/152/76 107/151/75 193/156/76
f 52/157/78 188/158/77 54/159/77
f 50/160/79 185/161/78 52/157/78
f 48/162/80 74/163/79 50/160/79
f 46/164/81 178/165/80 48/162/80
f 46/164/81 4/101/46 180/166/81
f 92/1/1 80/167/1 113/2/1
f 85/168/82 86/59/4 103/6/4
f 103/6/4 100/169/82 101/4/2
f 101/4/2 98/70/2 93/5/3
f 95/170/82 96/48/3 93/5/3
f 93/5/3 90/171/82 91/172/34
f 91/172/34 88/76/34 93/5/3
f 85/168/82 103/6/4 93/5/3
f 98/70/2 95/170/82 93/5/3
f 93/5/3 88/76/34 85/168/82
f 187/7/5 15/173/5 16/8/6
f 192/10/7 110/174/7 108/11/7
f 177/13/8 97/175/8 13/14/9
f 79/16/10 9/176/10 10/17/11
f 189/9/6 16/8/6 104/19/12
f 105/21/13 87/177/13 7/22/14
f 182/15/9 13/14/9 14/24/15
f 84/18/11 10/17/11 94/26/16
f 71/23/14 7/22/14 89/28/17
f 8/30/18 131/178/18 115/31/18
f 179/33/19 118/179/19 116/34/19
f 114/36/20 130/180/20 128/37/20
f 111/39/21 126/181/21 124/40/21
f 120/42/22 122/182/22 138/43/22
f 119/45/23 134/183/23 132/46/23
f 96/48/3 133/184/24 135/49/24
f 102/50/25 76/185/25 121/51/25
f 99/53/26 139/186/26 123/54/26
f 186/56/27 184/187/27 24/57/27
f 86/59/4 125/188/28 127/60/28
f 11/61/29 30/189/29 22/62/29
f 6/64/30 26/190/30 18/65/30
f 81/67/31 20/191/31 19/68/31
f 98/70/2 101/4/2 31/71/32
f 5/73/33 1/192/33 17/74/33
f 88/76/34 91/172/34 27/77/35
f 12/79/36 73/193/36 21/80/36
f 143/82/37 142/194/38 141/83/38
f 141/83/38 142/194/38 145/85/14
f 145/85/14 147/88/39 146/87/39
f 147/88/39 149/90/40 148/89/40
f 149/90/40 151/195/11 150/91/11
f 150/91/11 151/195/11 153/92/41
f 153/92/41 155/95/42 154/94/42
f 155/95/42 157/196/9 156/96/9
f 156/96/9 157/196/9 159/97/43
f 159/97/43 161/197/44 160/99/44
f 42/100/45 3/146/45 4/101/46
f 160/103/44 161/198/44 163/104/6
f 163/104/6 143/82/37 140/84/37
f 49/106/47 172/133/47 171/107/48
f 47/108/48 171/107/48 170/112/52
f 45/113/52 170/112/52 169/114/53
f 43/115/53 169/114/53 61/116/54
f 41/117/54 61/116/54 167/118/55
f 33/120/56 164/124/56 175/121/57
f 35/123/58 165/129/58 164/124/56
f 37/125/59 39/119/55 167/118/55
f 55/122/57 175/121/57 174/127/60
f 37/125/59 166/126/59 165/129/58
f 53/130/60 174/199/60 173/131/61
f 51/132/61 173/131/61 172/133/47
f 42/100/45 40/153/72 2/145/72
f 56/147/73 77/155/73 191/148/74
f 36/150/75 34/149/74 191/148/74
f 38/152/76 193/156/76 2/145/72
f 56/147/73 54/200/77 188/154/77
f 38/152/76 36/150/75 107/151/75
f 52/157/78 185/161/78 188/158/77
f 50/160/79 74/163/79 185/161/78
f 48/162/80 178/165/80 74/163/79
f 46/164/81 180/166/81 178/165/80
f 46/164/81 44/102/46 4/101/46
